<?xml version="1.0" encoding="UTF-8"?><svg xmlns="http://www.w3.org/2000/svg" xmlns:xlink="http://www.w3.org/1999/xlink" height="126.2" preserveAspectRatio="xMidYMid meet" version="1.0" viewBox="-4.5 0.0 131.0 126.2" width="131.0" zoomAndPan="magnify"><linearGradient gradientUnits="userSpaceOnUse" id="a" x1="62.857" x2="62.857" xlink:actuate="onLoad" xlink:show="other" xlink:type="simple" xmlns:xlink="http://www.w3.org/1999/xlink" y1="0" y2="126.238"><stop offset="0" stop-color="#efcb58"/><stop offset="1" stop-color="#cc57c7"/></linearGradient><path d="M45.743,91.89c10.315,0,20.101-3.414,28.102-9.691l4.987,5.007 c-1.008,1.292-0.934,3.163,0.251,4.352l32.204,32.334c1.508,1.514,3.512,2.347,5.645,2.347s4.136-0.833,5.644-2.347l0.807-0.811 c3.109-3.122,3.109-8.201,0-11.322L93.091,81.345c0,0,0-0.001-0.001-0.001s-0.001,0-0.001-0.001l-1.911-1.919 c-0.621-0.624-1.447-0.967-2.326-0.967c0,0,0,0,0,0c-0.742,0-1.439,0.258-2.014,0.71l-4.989-5.009 c13.982-18.009,12.742-44.147-3.744-60.699C69.461,4.779,57.968,0,45.743,0S22.025,4.779,13.381,13.458 c-17.842,17.913-17.842,47.06,0,64.973C22.025,87.11,33.518,91.89,45.743,91.89z M121.965,121.669l-0.807,0.811 c-1.129,1.134-2.63,1.758-4.227,1.758c-1.597,0-3.098-0.625-4.228-1.758L83.117,92.774l9.267-9.304l29.581,29.7 C124.299,115.513,124.299,119.325,121.965,121.669z M88.852,80.457L88.852,80.457c0.343,0,0.666,0.134,0.909,0.378l1.212,1.217 l-9.267,9.304L80.5,90.146c-0.504-0.507-0.504-1.331,0-1.837l3.721-3.736l3.298-3.311c0,0,0-0.001,0-0.001l0.423-0.425 C88.186,80.591,88.508,80.457,88.852,80.457z M85.398,80.556l-5.184,5.204l-4.816-4.835c0.927-0.795,1.835-1.619,2.706-2.494 c0.872-0.876,1.689-1.786,2.476-2.713L85.398,80.556z M14.798,14.87C23.064,6.57,34.054,2,45.743,2s22.679,4.57,30.945,12.87 c17.066,17.135,17.066,45.016,0,62.15c-8.266,8.299-19.255,12.87-30.945,12.87s-22.679-4.57-30.945-12.87 C-2.268,59.885-2.268,32.005,14.798,14.87z M9.891,58.838c1.835,5.167,4.803,10.016,8.916,14.145 c6.671,6.698,15.382,10.599,24.726,11.132c0.006,0,0.013,0.004,0.019,0.004c0.005,0,0.009-0.002,0.014-0.002 c0.723,0.041,1.448,0.067,2.177,0.067c10.175,0,19.741-3.978,26.936-11.202c14.432-14.49,14.833-37.81,1.212-52.796 c-0.008-0.009-0.016-0.017-0.024-0.026c-0.386-0.424-0.779-0.845-1.188-1.255C65.768,11.968,56.666,8.034,46.94,7.734 c-0.091-0.015-0.179-0.017-0.268-0.007c-0.31-0.007-0.618-0.023-0.929-0.023c-10.175,0-19.741,3.978-26.936,11.202 C8.107,29.65,5.12,45.248,9.841,58.704C9.854,58.751,9.871,58.793,9.891,58.838z M45.191,9.719L17.358,68.314 c-2.375-3.034-4.199-6.362-5.472-9.85l22.25-46.843C37.657,10.424,41.375,9.776,45.191,9.719z M18.767,70.011L47.393,9.745 c5.494,0.247,10.764,1.723,15.499,4.297L31.843,79.408c-4.29-1.797-8.232-4.436-11.619-7.836 C19.719,71.064,19.236,70.541,18.767,70.011z M71.262,71.572c-6.816,6.844-15.879,10.613-25.519,10.613 c-0.211,0-0.421-0.012-0.632-0.015l28.27-59.516C85.287,36.877,84.586,58.193,71.262,71.572z M71.938,21.032L42.945,82.067 c-3.18-0.243-6.278-0.893-9.23-1.938l30.911-65.075c2.38,1.473,4.609,3.229,6.636,5.264C71.494,20.551,71.713,20.794,71.938,21.032z M20.225,20.318c3.275-3.288,7.073-5.858,11.2-7.65l-20.43,43.01C7.632,43.493,10.703,29.878,20.225,20.318z" fill="url(#a)"/></svg>