<?xml version="1.0" encoding="UTF-8"?><svg xmlns="http://www.w3.org/2000/svg" xmlns:xlink="http://www.w3.org/1999/xlink" height="528.2" preserveAspectRatio="xMidYMid meet" version="1.0" viewBox="58.6 142.3 698.0 528.2" width="698.0" zoomAndPan="magnify"><g><g><path d="M 257.683594 379.714844 L 126.9375 283.851562 C 84.011719 341.820312 58.605469 413.546875 58.582031 491.210938 L 217.972656 490.476562 C 219.15625 448.792969 233.789062 410.480469 257.683594 379.714844" fill="#ff0606"/></g><g><path d="M 351.566406 314.675781 L 301.640625 158.726562 C 229.980469 181.527344 168.375 226.84375 125.109375 286.363281 L 256.648438 381.011719 C 280.332031 349.972656 313.371094 326.449219 351.566406 314.675781" fill="#ff9d27"/></g><g><path d="M 407.527344 306.28125 C 427.59375 306.28125 446.929688 309.40625 465.082031 315.183594 L 516.359375 159.65625 C 482.121094 148.433594 445.558594 142.339844 407.566406 142.339844 C 369.546875 142.339844 332.957031 148.441406 298.695312 159.683594 L 350.003906 315.171875 C 368.148438 309.402344 387.472656 306.28125 407.527344 306.28125" fill="#ffef29"/></g><g><path d="M 558.40625 381.015625 L 689.976562 286.292969 C 646.695312 226.78125 585.078125 181.484375 513.410156 158.699219 L 463.519531 314.683594 C 501.699219 326.46875 534.726562 349.980469 558.40625 381.015625" fill="#cff935"/></g><g><path d="M 597.160156 490.429688 L 756.554688 491.121094 C 756.511719 413.460938 731.085938 341.738281 688.144531 283.78125 L 557.425781 379.679688 C 581.324219 410.4375 595.96875 448.746094 597.160156 490.429688" fill="#35dd12"/></g><g><path d="M 423.371094 489.363281 C 425.734375 493.476562 424.320312 498.730469 420.210938 501.09375 C 416.09375 503.457031 410.84375 502.039062 408.480469 497.929688 C 406.113281 493.816406 407.527344 488.566406 411.644531 486.199219 C 415.757812 483.835938 421.007812 485.253906 423.371094 489.363281 Z M 397.371094 504.441406 C 403.640625 515.339844 417.550781 519.089844 428.449219 512.824219 C 430.003906 511.929688 431.394531 510.863281 432.652344 509.691406 L 566.5625 409.820312 L 411.851562 470.957031 C 409.765625 471.453125 407.707031 472.242188 405.753906 473.367188 C 394.859375 479.632812 391.105469 493.546875 397.371094 504.441406" fill="#515151"/></g><g><path d="M 145.210938 491.03125 C 145.210938 490.957031 145.210938 490.886719 145.210938 490.8125 L 217.972656 490.476562 C 219.15625 448.792969 233.789062 410.480469 257.683594 379.714844 L 257.660156 379.695312 C 275.148438 357.1875 297.589844 338.71875 323.355469 325.9375 C 297.59375 338.867188 275.152344 357.542969 257.667969 380.3125 L 257.683594 380.324219 C 234.105469 411.03125 219.554688 449.175781 218.035156 490.691406 L 145.210938 491.03125 M 669.929688 490.964844 L 597.097656 490.644531 C 595.59375 449.726562 581.417969 412.09375 558.429688 381.621094 L 558.40625 381.640625 C 540.859375 358.378906 518.183594 339.300781 492.078125 326.128906 C 518.179688 339.152344 540.859375 358.019531 558.40625 381.015625 L 558.4375 380.992188 C 581.738281 411.527344 595.984375 449.339844 597.160156 490.429688 L 669.925781 490.746094 C 669.929688 490.820312 669.929688 490.890625 669.929688 490.964844" fill="#fff"/></g><g><path d="M 145.210938 490.8125 C 145.277344 433.140625 163.542969 379.789062 194.492188 336.289062 L 256.648438 381.011719 C 256.984375 380.570312 257.320312 380.132812 257.660156 379.695312 L 257.683594 379.714844 C 233.789062 410.480469 219.15625 448.792969 217.972656 490.476562 L 145.210938 490.8125" fill="#ff0505"/></g><g><path d="M 256.648438 381.011719 L 194.492188 336.289062 C 194.738281 335.945312 194.980469 335.601562 195.226562 335.261719 L 195.222656 335.257812 C 195.316406 335.128906 195.414062 335 195.507812 334.871094 C 195.871094 334.363281 196.230469 333.851562 196.601562 333.347656 L 196.613281 333.359375 C 228.449219 289.875 273.101562 256.585938 324.933594 239.195312 L 349.964844 315.050781 C 340.769531 318.011719 331.882812 321.660156 323.355469 325.9375 C 297.589844 338.71875 275.148438 357.1875 257.660156 379.695312 C 257.320312 380.132812 256.984375 380.570312 256.648438 381.011719" fill="#ff8421"/></g><g><path d="M 349.964844 315.050781 L 324.933594 239.195312 C 325.195312 239.105469 325.460938 239.019531 325.722656 238.933594 L 325.71875 238.925781 C 325.976562 238.839844 326.238281 238.761719 326.492188 238.675781 C 326.976562 238.515625 327.453125 238.351562 327.9375 238.195312 L 327.941406 238.210938 C 353.058594 230.125 379.804688 225.734375 407.566406 225.734375 C 435.308594 225.734375 462.035156 230.117188 487.136719 238.191406 L 487.140625 238.175781 C 487.398438 238.257812 487.652344 238.34375 487.910156 238.429688 L 463.558594 314.566406 C 445.847656 309.035156 427.03125 306.042969 407.527344 306.042969 C 387.558594 306.042969 368.316406 309.175781 350.238281 314.964844 C 350.148438 314.992188 350.054688 315.023438 349.964844 315.050781" fill="#ffd122"/></g><g><path d="M 558.40625 381.015625 C 540.859375 358.019531 518.179688 339.152344 492.078125 326.128906 C 483.359375 321.730469 474.261719 317.988281 464.84375 314.972656 C 464.414062 314.835938 463.988281 314.699219 463.558594 314.566406 L 487.910156 238.429688 C 488.101562 238.496094 488.296875 238.5625 488.488281 238.625 C 488.777344 238.71875 489.066406 238.808594 489.355469 238.902344 L 489.351562 238.914062 C 541.527344 256.214844 586.476562 289.609375 618.480469 333.308594 L 618.5 333.292969 C 618.75 333.636719 618.996094 333.984375 619.242188 334.328125 L 557.425781 379.679688 C 557.765625 380.117188 558.101562 380.550781 558.4375 380.992188 L 558.40625 381.015625" fill="#aeee2c"/></g><g><path d="M 669.925781 490.746094 L 597.160156 490.429688 C 595.984375 449.339844 581.738281 411.527344 558.4375 380.992188 C 558.101562 380.550781 557.765625 380.117188 557.425781 379.679688 L 619.242188 334.328125 C 619.367188 334.503906 619.492188 334.679688 619.617188 334.851562 C 619.699219 334.96875 619.789062 335.085938 619.875 335.203125 L 619.871094 335.203125 C 651.273438 378.886719 669.84375 432.617188 669.925781 490.746094" fill="#2cb90f"/></g><g><path d="M 631.003906 414.902344 C 629.277344 406.359375 631.226562 397.328125 635.894531 390.03125 C 640.339844 383.089844 647.523438 378.320312 655.441406 376.285156 C 663.308594 374.261719 671.867188 375.253906 679.066406 379 C 686.105469 382.660156 691.554688 389.039062 694.46875 396.375 C 695.933594 400.0625 696.691406 404 696.800781 407.960938 C 696.804688 408.078125 696.8125 408.1875 696.820312 408.300781 L 696.808594 408.4375 C 696.59375 424.859375 684.199219 439.351562 667.761719 441.429688 C 650.644531 443.59375 634.398438 431.71875 631.003906 414.902344 Z M 701.394531 408.261719 C 701.570312 406.511719 701.164062 404.511719 700.914062 402.792969 C 700.613281 400.730469 700.097656 398.707031 699.453125 396.730469 C 698.246094 393.011719 696.414062 389.503906 694.144531 386.328125 C 684.394531 372.691406 666.5625 367.386719 650.839844 372.917969 C 634.890625 378.527344 624.863281 394.382812 625.898438 411.136719 C 626.894531 427.222656 638.699219 440.949219 654.160156 445.054688 C 667.40625 448.566406 681.964844 444.066406 691.296875 434.160156 C 695.886719 429.289062 698.972656 423.09375 700.453125 416.59375 C 700.789062 415.121094 701.003906 413.625 701.171875 412.128906 C 701.296875 411.023438 701.601562 409.484375 701.394531 408.261719" fill="#fff"/></g><g><path d="M 655.765625 399.308594 C 655.765625 403.066406 654.578125 406.113281 653.109375 406.113281 C 651.644531 406.113281 650.457031 403.066406 650.457031 399.308594 C 650.457031 395.546875 651.644531 392.503906 653.109375 392.503906 C 654.578125 392.503906 655.765625 395.546875 655.765625 399.308594" fill="#fff"/></g><g><path d="M 676.683594 399.308594 C 676.683594 403.066406 675.492188 406.113281 674.027344 406.113281 C 672.5625 406.113281 671.371094 403.066406 671.371094 399.308594 C 671.371094 395.546875 672.5625 392.503906 674.027344 392.503906 C 675.492188 392.503906 676.683594 395.546875 676.683594 399.308594" fill="#fff"/></g><g><path d="M 647.8125 424.433594 C 656.285156 437.910156 670.855469 437.910156 679.328125 424.433594 C 680.757812 422.160156 678.460938 418.742188 677.027344 421.019531 C 669.722656 432.644531 657.417969 432.644531 650.113281 421.019531 C 648.679688 418.742188 646.382812 422.160156 647.8125 424.433594" fill="#fff"/></g><g><path d="M 524.78125 279.023438 C 523.058594 270.480469 525.007812 261.449219 529.675781 254.152344 C 534.117188 247.214844 541.304688 242.445312 549.21875 240.40625 C 557.089844 238.382812 565.648438 239.375 572.847656 243.121094 C 579.882812 246.785156 585.335938 253.160156 588.25 260.496094 C 589.714844 264.1875 590.472656 268.121094 590.578125 272.082031 C 590.585938 272.195312 590.589844 272.308594 590.601562 272.421875 L 590.585938 272.558594 C 590.371094 288.980469 577.976562 303.472656 561.542969 305.550781 C 544.421875 307.71875 528.175781 295.839844 524.78125 279.023438 Z M 595.171875 272.386719 C 595.351562 270.632812 594.945312 268.632812 594.691406 266.914062 C 594.394531 264.855469 593.878906 262.828125 593.234375 260.851562 C 592.027344 257.132812 590.195312 253.625 587.925781 250.449219 C 578.175781 236.8125 560.339844 231.507812 544.617188 237.039062 C 528.671875 242.648438 518.644531 258.503906 519.679688 275.257812 C 520.675781 291.34375 532.480469 305.074219 547.941406 309.175781 C 561.1875 312.6875 575.742188 308.1875 585.078125 298.28125 C 589.667969 293.410156 592.75 287.214844 594.230469 280.714844 C 594.570312 279.246094 594.78125 277.746094 594.949219 276.25 C 595.074219 275.144531 595.382812 273.605469 595.171875 272.386719" fill="#fff"/></g><g><path d="M 549.546875 263.429688 C 549.546875 267.1875 548.355469 270.234375 546.890625 270.234375 C 545.425781 270.234375 544.234375 267.1875 544.234375 263.429688 C 544.234375 259.671875 545.425781 256.621094 546.890625 256.621094 C 548.355469 256.621094 549.546875 259.671875 549.546875 263.429688" fill="#fff"/></g><g><path d="M 570.464844 263.429688 C 570.464844 267.1875 569.273438 270.234375 567.808594 270.234375 C 566.339844 270.234375 565.148438 267.1875 565.148438 263.429688 C 565.148438 259.671875 566.339844 256.621094 567.808594 256.621094 C 569.273438 256.621094 570.464844 259.671875 570.464844 263.429688" fill="#fff"/></g><g><path d="M 541.921875 286.550781 C 551.695312 291.425781 563 291.425781 572.777344 286.550781 C 574.65625 285.617188 573.007812 282.808594 571.136719 283.742188 C 562.457031 288.066406 552.238281 288.066406 543.5625 283.742188 C 541.691406 282.808594 540.039062 285.617188 541.921875 286.550781" fill="#fff"/></g><g><path d="M 374.882812 232.140625 C 373.160156 223.597656 375.109375 214.5625 379.777344 207.269531 C 384.222656 200.328125 391.40625 195.558594 399.324219 193.523438 C 407.191406 191.5 415.75 192.488281 422.949219 196.234375 C 429.984375 199.898438 435.4375 206.273438 438.351562 213.613281 C 439.816406 217.300781 440.574219 221.234375 440.683594 225.199219 C 440.6875 225.3125 440.691406 225.425781 440.703125 225.539062 L 440.6875 225.675781 C 440.472656 242.097656 428.082031 256.585938 411.644531 258.667969 C 394.523438 260.832031 378.28125 248.953125 374.882812 232.140625 Z M 445.273438 225.5 C 445.453125 223.746094 445.046875 221.75 444.796875 220.03125 C 444.496094 217.96875 443.980469 215.945312 443.339844 213.964844 C 442.128906 210.25 440.296875 206.738281 438.027344 203.566406 C 428.277344 189.929688 410.441406 184.625 394.722656 190.15625 C 378.773438 195.765625 368.746094 211.621094 369.78125 228.371094 C 370.777344 244.457031 382.582031 258.1875 398.046875 262.289062 C 411.289062 265.804688 425.847656 261.300781 435.179688 251.394531 C 439.769531 246.523438 442.855469 240.332031 444.335938 233.832031 C 444.671875 232.359375 444.886719 230.863281 445.054688 229.363281 C 445.179688 228.261719 445.484375 226.722656 445.273438 225.5" fill="#fff"/></g><g><path d="M 399.648438 216.542969 C 399.648438 220.304688 398.460938 223.351562 396.992188 223.351562 C 395.527344 223.351562 394.339844 220.304688 394.339844 216.542969 C 394.339844 212.785156 395.527344 209.738281 396.992188 209.738281 C 398.460938 209.738281 399.648438 212.785156 399.648438 216.542969" fill="#fff"/></g><g><path d="M 420.566406 216.542969 C 420.566406 220.304688 419.375 223.351562 417.910156 223.351562 C 416.441406 223.351562 415.253906 220.304688 415.253906 216.542969 C 415.253906 212.785156 416.441406 209.738281 417.910156 209.738281 C 419.375 209.738281 420.566406 212.785156 420.566406 216.542969" fill="#fff"/></g><g><path d="M 392.84375 240.945312 C 402.582031 240.945312 412.320312 240.945312 422.058594 240.945312 C 424.15625 240.945312 424.15625 237.691406 422.058594 237.691406 C 412.320312 237.691406 402.582031 237.691406 392.84375 237.691406 C 390.746094 237.691406 390.746094 240.945312 392.84375 240.945312" fill="#fff"/></g><g><path d="M 214.605469 276.414062 C 212.882812 267.871094 214.832031 258.839844 219.5 251.546875 C 223.941406 244.601562 231.128906 239.835938 239.046875 237.796875 C 246.914062 235.773438 255.472656 236.765625 262.671875 240.511719 C 269.707031 244.171875 275.160156 250.550781 278.074219 257.886719 C 279.539062 261.578125 280.296875 265.511719 280.40625 269.472656 C 280.40625 269.589844 280.414062 269.703125 280.425781 269.816406 L 280.410156 269.949219 C 280.195312 286.371094 267.804688 300.859375 251.367188 302.941406 C 234.246094 305.105469 218.003906 293.230469 214.605469 276.414062 Z M 284.992188 269.753906 C 285.277344 266.152344 284.253906 262.058594 283.207031 258.695312 C 282.046875 254.964844 280.257812 251.429688 278.027344 248.226562 C 268.457031 234.476562 250.703125 228.945312 234.921875 234.261719 C 218.890625 239.660156 208.660156 255.382812 209.476562 272.152344 C 210.257812 288.269531 221.890625 302.128906 237.304688 306.441406 C 250.660156 310.179688 265.457031 305.691406 274.902344 295.671875 C 279.492188 290.800781 282.574219 284.605469 284.058594 278.105469 C 284.394531 276.636719 284.609375 275.136719 284.777344 273.640625 C 284.902344 272.527344 285.210938 270.980469 284.992188 269.753906" fill="#fff"/></g><g><path d="M 239.371094 260.816406 C 239.371094 264.578125 238.183594 267.625 236.714844 267.625 C 235.25 267.625 234.058594 264.578125 234.058594 260.816406 C 234.058594 257.058594 235.25 254.011719 236.714844 254.011719 C 238.183594 254.011719 239.371094 257.058594 239.371094 260.816406" fill="#fff"/></g><g><path d="M 260.285156 260.816406 C 260.285156 264.578125 259.097656 267.625 257.632812 267.625 C 256.164062 267.625 254.976562 264.578125 254.976562 260.816406 C 254.976562 257.058594 256.164062 254.011719 257.632812 254.011719 C 259.097656 254.011719 260.285156 257.058594 260.285156 260.816406" fill="#fff"/></g><g><path d="M 231.746094 284.207031 C 241.523438 279.335938 252.824219 279.335938 262.601562 284.207031 C 264.480469 285.144531 262.832031 287.949219 260.960938 287.015625 C 252.28125 282.691406 242.066406 282.691406 233.386719 287.015625 C 231.515625 287.949219 229.867188 285.144531 231.746094 284.207031" fill="#fff"/></g><g><path d="M 117.640625 414.902344 C 115.914062 406.359375 117.863281 397.328125 122.53125 390.035156 C 126.976562 383.089844 134.160156 378.324219 142.078125 376.285156 C 149.945312 374.261719 158.507812 375.253906 165.703125 379 C 172.738281 382.664062 178.191406 389.039062 181.105469 396.375 C 182.570312 400.0625 183.328125 404 183.4375 407.960938 C 183.441406 408.078125 183.449219 408.191406 183.460938 408.304688 L 183.445312 408.4375 C 183.230469 424.859375 170.835938 439.347656 154.402344 441.429688 C 137.28125 443.59375 121.035156 431.71875 117.640625 414.902344 Z M 188.023438 408.238281 C 188.3125 404.644531 187.285156 400.550781 186.238281 397.183594 C 185.082031 393.453125 183.289062 389.917969 181.058594 386.714844 C 171.488281 372.964844 153.734375 367.4375 137.953125 372.75 C 121.921875 378.148438 111.691406 393.871094 112.507812 410.640625 C 113.289062 426.757812 124.921875 440.617188 140.339844 444.929688 C 153.695312 448.664062 168.492188 444.183594 177.933594 434.160156 C 182.523438 429.289062 185.609375 423.09375 187.089844 416.59375 C 187.425781 415.125 187.640625 413.625 187.808594 412.128906 C 187.933594 411.015625 188.242188 409.46875 188.023438 408.238281" fill="#fff"/></g><g><path d="M 142.40625 399.308594 C 142.40625 403.066406 141.214844 406.113281 139.75 406.113281 C 138.28125 406.113281 137.09375 403.066406 137.09375 399.308594 C 137.09375 395.546875 138.28125 392.503906 139.75 392.503906 C 141.214844 392.503906 142.40625 395.546875 142.40625 399.308594" fill="#fff"/></g><g><path d="M 163.320312 399.308594 C 163.320312 403.066406 162.132812 406.113281 160.664062 406.113281 C 159.199219 406.113281 158.007812 403.066406 158.007812 399.308594 C 158.007812 395.546875 159.199219 392.503906 160.664062 392.503906 C 162.132812 392.503906 163.320312 395.546875 163.320312 399.308594" fill="#fff"/></g><g><path d="M 134.449219 423.558594 C 142.921875 409.648438 157.492188 409.648438 165.964844 423.558594 C 167.394531 425.898438 165.097656 429.429688 163.664062 427.074219 C 156.359375 415.082031 144.054688 415.082031 136.75 427.074219 C 135.316406 429.429688 133.019531 425.898438 134.449219 423.558594" fill="#fff"/></g><g><path d="M 630.925781 636.890625 C 629.199219 628.347656 631.152344 619.3125 635.820312 612.019531 C 640.265625 605.078125 647.445312 600.308594 655.363281 598.269531 C 663.230469 596.246094 671.792969 597.238281 678.988281 600.984375 C 686.027344 604.648438 691.480469 611.023438 694.394531 618.359375 C 695.855469 622.050781 696.617188 625.984375 696.726562 629.945312 C 696.726562 630.0625 696.734375 630.175781 696.746094 630.285156 L 696.730469 630.425781 C 696.515625 646.847656 684.121094 661.335938 667.6875 663.414062 C 650.566406 665.582031 634.320312 653.703125 630.925781 636.890625 Z M 701.316406 630.25 C 701.496094 628.496094 701.089844 626.496094 700.839844 624.777344 C 700.535156 622.71875 700.019531 620.695312 699.378906 618.714844 C 698.171875 614.996094 696.339844 611.488281 694.070312 608.3125 C 684.320312 594.679688 666.484375 589.371094 650.765625 594.902344 C 634.8125 600.515625 624.785156 616.371094 625.824219 633.121094 C 626.820312 649.207031 638.621094 662.9375 654.085938 667.039062 C 667.328125 670.550781 681.890625 666.050781 691.222656 656.144531 C 695.8125 651.273438 698.894531 645.078125 700.378906 638.578125 C 700.714844 637.109375 700.929688 635.613281 701.097656 634.113281 C 701.222656 633.007812 701.523438 631.472656 701.316406 630.25" fill="#35dd12"/></g><g><path d="M 655.691406 621.292969 C 655.691406 625.050781 654.503906 628.101562 653.035156 628.101562 C 651.566406 628.101562 650.382812 625.050781 650.382812 621.292969 C 650.382812 617.535156 651.566406 614.488281 653.035156 614.488281 C 654.503906 614.488281 655.691406 617.535156 655.691406 621.292969" fill="#35dd12"/></g><g><path d="M 676.605469 621.292969 C 676.605469 625.054688 675.417969 628.101562 673.949219 628.101562 C 672.484375 628.101562 671.296875 625.054688 671.296875 621.292969 C 671.296875 617.535156 672.484375 614.488281 673.949219 614.488281 C 675.417969 614.488281 676.605469 617.535156 676.605469 621.292969" fill="#35dd12"/></g><g><path d="M 647.734375 646.417969 C 656.210938 659.898438 670.777344 659.898438 679.253906 646.417969 C 680.679688 644.144531 678.386719 640.726562 676.949219 643.007812 C 669.644531 654.632812 657.34375 654.632812 650.035156 643.007812 C 648.605469 640.726562 646.308594 644.144531 647.734375 646.417969" fill="#35dd12"/></g><g><path d="M 500 636.886719 C 498.277344 628.34375 500.226562 619.3125 504.894531 612.015625 C 509.339844 605.074219 516.523438 600.304688 524.4375 598.269531 C 532.308594 596.242188 540.867188 597.234375 548.066406 600.980469 C 555.101562 604.644531 560.554688 611.019531 563.46875 618.359375 C 564.933594 622.046875 565.691406 625.984375 565.800781 629.945312 C 565.804688 630.058594 565.808594 630.171875 565.820312 630.285156 L 565.804688 630.421875 C 565.589844 646.84375 553.195312 661.332031 536.761719 663.410156 C 519.640625 665.578125 503.394531 653.699219 500 636.886719 Z M 570.390625 630.246094 C 570.570312 628.492188 570.164062 626.492188 569.914062 624.777344 C 569.613281 622.714844 569.097656 620.691406 568.453125 618.710938 C 567.246094 614.992188 565.414062 611.484375 563.144531 608.3125 C 553.394531 594.675781 535.5625 589.371094 519.839844 594.898438 C 503.890625 600.511719 493.863281 616.367188 494.898438 633.117188 C 495.894531 649.203125 507.699219 662.933594 523.160156 667.035156 C 536.40625 670.550781 550.964844 666.046875 560.296875 656.144531 C 564.886719 651.269531 567.972656 645.078125 569.453125 638.578125 C 569.789062 637.105469 570.003906 635.609375 570.171875 634.109375 C 570.296875 633.007812 570.601562 631.46875 570.390625 630.246094" fill="#cff935"/></g><g><path d="M 524.765625 621.289062 C 524.765625 625.046875 523.578125 628.097656 522.109375 628.097656 C 520.644531 628.097656 519.453125 625.046875 519.453125 621.289062 C 519.453125 617.53125 520.644531 614.484375 522.109375 614.484375 C 523.578125 614.484375 524.765625 617.53125 524.765625 621.289062" fill="#cff935"/></g><g><path d="M 545.683594 621.289062 C 545.683594 625.046875 544.492188 628.097656 543.027344 628.097656 C 541.558594 628.097656 540.371094 625.046875 540.371094 621.289062 C 540.371094 617.53125 541.558594 614.484375 543.027344 614.484375 C 544.492188 614.484375 545.683594 617.53125 545.683594 621.289062" fill="#cff935"/></g><g><path d="M 517.140625 644.410156 C 526.917969 649.285156 538.222656 649.285156 547.996094 644.410156 C 549.875 643.476562 548.226562 640.671875 546.355469 641.601562 C 537.679688 645.929688 527.460938 645.929688 518.78125 641.601562 C 516.910156 640.671875 515.261719 643.476562 517.140625 644.410156" fill="#cff935"/></g><g><path d="M 374.925781 634.644531 C 373.199219 626.101562 375.152344 617.066406 379.820312 609.773438 C 384.261719 602.832031 391.445312 598.0625 399.363281 596.023438 C 407.230469 594.003906 415.792969 594.992188 422.988281 598.738281 C 430.027344 602.402344 435.480469 608.777344 438.394531 616.113281 C 439.855469 619.804688 440.617188 623.738281 440.726562 627.699219 C 440.726562 627.816406 440.734375 627.929688 440.746094 628.039062 L 440.730469 628.175781 C 440.515625 644.601562 428.121094 659.089844 411.6875 661.171875 C 394.566406 663.335938 378.320312 651.457031 374.925781 634.644531 Z M 445.316406 628.003906 C 445.496094 626.25 445.089844 624.253906 444.839844 622.53125 C 444.535156 620.472656 444.019531 618.445312 443.378906 616.46875 C 442.171875 612.753906 440.339844 609.242188 438.070312 606.066406 C 428.320312 592.433594 410.484375 587.128906 394.761719 592.65625 C 378.8125 598.269531 368.785156 614.121094 369.824219 630.875 C 370.820312 646.960938 382.625 660.691406 398.085938 664.792969 C 411.328125 668.308594 425.886719 663.804688 435.222656 653.898438 C 439.8125 649.027344 442.894531 642.835938 444.378906 636.335938 C 444.714844 634.863281 444.925781 633.367188 445.097656 631.867188 C 445.222656 630.761719 445.523438 629.226562 445.316406 628.003906" fill="#ffef29"/></g><g><path d="M 399.691406 619.046875 C 399.691406 622.804688 398.503906 625.851562 397.035156 625.851562 C 395.570312 625.851562 394.378906 622.804688 394.378906 619.046875 C 394.378906 615.289062 395.570312 612.242188 397.035156 612.242188 C 398.503906 612.242188 399.691406 615.289062 399.691406 619.046875" fill="#ffef29"/></g><g><path d="M 420.605469 619.046875 C 420.605469 622.804688 419.417969 625.851562 417.949219 625.851562 C 416.484375 625.851562 415.296875 622.804688 415.296875 619.046875 C 415.296875 615.289062 416.484375 612.242188 417.949219 612.242188 C 419.417969 612.242188 420.605469 615.289062 420.605469 619.046875" fill="#ffef29"/></g><g><path d="M 392.886719 643.449219 C 402.625 643.449219 412.363281 643.449219 422.101562 643.449219 C 424.195312 643.449219 424.195312 640.195312 422.101562 640.195312 C 412.363281 640.195312 402.625 640.195312 392.886719 640.195312 C 390.785156 640.195312 390.785156 643.449219 392.886719 643.449219" fill="#ffef29"/></g><g><path d="M 252.425781 634.644531 C 250.703125 626.101562 252.652344 617.066406 257.320312 609.773438 C 261.761719 602.832031 268.945312 598.0625 276.863281 596.023438 C 284.730469 594 293.292969 594.992188 300.488281 598.738281 C 307.527344 602.402344 312.980469 608.777344 315.894531 616.117188 C 317.359375 619.804688 318.117188 623.738281 318.226562 627.703125 C 318.226562 627.816406 318.234375 627.933594 318.246094 628.042969 L 318.230469 628.175781 C 318.015625 644.601562 305.621094 659.089844 289.1875 661.171875 C 272.066406 663.335938 255.820312 651.457031 252.425781 634.644531 Z M 322.8125 627.980469 C 323.097656 624.382812 322.070312 620.289062 321.027344 616.925781 C 319.867188 613.191406 318.074219 609.65625 315.847656 606.453125 C 306.277344 592.703125 288.519531 587.175781 272.742188 592.488281 C 256.707031 597.890625 246.480469 613.613281 247.292969 630.378906 C 248.074219 646.496094 259.707031 660.359375 275.125 664.671875 C 288.480469 668.40625 303.277344 663.921875 312.722656 653.898438 C 317.3125 649.027344 320.394531 642.832031 321.878906 636.335938 C 322.214844 634.863281 322.425781 633.367188 322.59375 631.867188 C 322.722656 630.753906 323.027344 629.207031 322.8125 627.980469" fill="#ff9d27"/></g><g><path d="M 277.191406 619.046875 C 277.191406 622.804688 276.003906 625.851562 274.535156 625.851562 C 273.070312 625.851562 271.878906 622.804688 271.878906 619.046875 C 271.878906 615.289062 273.070312 612.242188 274.535156 612.242188 C 276.003906 612.242188 277.191406 615.289062 277.191406 619.046875" fill="#ff9d27"/></g><g><path d="M 298.105469 619.046875 C 298.105469 622.804688 296.917969 625.851562 295.453125 625.851562 C 293.984375 625.851562 292.796875 622.804688 292.796875 619.046875 C 292.796875 615.289062 293.984375 612.242188 295.453125 612.242188 C 296.917969 612.242188 298.105469 615.289062 298.105469 619.046875" fill="#ff9d27"/></g><g><path d="M 269.566406 642.4375 C 279.339844 637.5625 290.644531 637.5625 300.421875 642.4375 C 302.300781 643.371094 300.652344 646.179688 298.78125 645.246094 C 290.101562 640.921875 279.882812 640.921875 271.207031 645.246094 C 269.335938 646.179688 267.6875 643.371094 269.566406 642.4375" fill="#ff9d27"/></g><g><path d="M 117.640625 634.644531 C 115.914062 626.101562 117.863281 617.066406 122.53125 609.773438 C 126.976562 602.832031 134.160156 598.0625 142.078125 596.023438 C 149.945312 594.003906 158.507812 594.992188 165.703125 598.738281 C 172.738281 602.402344 178.191406 608.777344 181.105469 616.113281 C 182.570312 619.804688 183.328125 623.738281 183.4375 627.703125 C 183.441406 627.816406 183.449219 627.933594 183.460938 628.046875 L 183.445312 628.179688 C 183.230469 644.601562 170.835938 659.089844 154.402344 661.171875 C 137.28125 663.335938 121.035156 651.457031 117.640625 634.644531 Z M 188.023438 627.980469 C 188.3125 624.382812 187.285156 620.289062 186.238281 616.925781 C 185.082031 613.191406 183.289062 609.65625 181.058594 606.453125 C 171.488281 592.703125 153.734375 587.175781 137.953125 592.492188 C 121.921875 597.890625 111.691406 613.613281 112.507812 630.378906 C 113.289062 646.496094 124.921875 660.359375 140.339844 664.671875 C 153.695312 668.40625 168.492188 663.921875 177.933594 653.898438 C 182.523438 649.027344 185.609375 642.835938 187.089844 636.335938 C 187.425781 634.863281 187.640625 633.367188 187.808594 631.867188 C 187.933594 630.757812 188.242188 629.207031 188.023438 627.980469" fill="#ff0606"/></g><g><path d="M 142.40625 619.046875 C 142.40625 622.808594 141.214844 625.851562 139.75 625.851562 C 138.28125 625.851562 137.09375 622.808594 137.09375 619.046875 C 137.09375 615.289062 138.28125 612.242188 139.75 612.242188 C 141.214844 612.242188 142.40625 615.289062 142.40625 619.046875" fill="#ff0606"/></g><g><path d="M 163.320312 619.046875 C 163.320312 622.808594 162.132812 625.851562 160.664062 625.851562 C 159.199219 625.851562 158.007812 622.808594 158.007812 619.046875 C 158.007812 615.289062 159.199219 612.242188 160.664062 612.242188 C 162.132812 612.242188 163.320312 615.289062 163.320312 619.046875" fill="#ff0606"/></g><g><path d="M 134.449219 643.296875 C 142.921875 629.390625 157.492188 629.390625 165.964844 643.296875 C 167.394531 645.640625 165.097656 649.167969 163.664062 646.816406 C 156.359375 634.824219 144.054688 634.824219 136.75 646.816406 C 135.316406 649.167969 133.019531 645.640625 134.449219 643.296875" fill="#ff0606"/></g></g></svg>