<?xml version="1.0" encoding="UTF-8"?><svg xmlns="http://www.w3.org/2000/svg" xmlns:xlink="http://www.w3.org/1999/xlink" height="365.3" preserveAspectRatio="xMidYMid meet" version="1.0" viewBox="0.0 -1.4 272.5 365.3" width="272.5" zoomAndPan="magnify"><g id="change1_1"><path d="M125.77,289.02c0,12.37-9.47,22.4-21.16,22.4s-21.16-10.03-21.16-22.4c0-12.37,9.47-22.4,21.16-22.4 S125.77,276.65,125.77,289.02z M270.67,105.72c-1.78-6.17-1.35-15.16-8.94-25.54c-7.6-10.38-8.43-13.8-22.86-25.59 c0,0-8.93-9.15-15.01-14.06c0,0-7.63-8.09-13.93-13.08c-1.42-1.12-5.98,6.47-12.21,18.9c-5.69-3.09-12.44-4.89-19.69-4.89 c-20.31,0-36.77,14.07-36.77,31.42c0,15.42,13,28.23,30.13,30.9c-18.45,42.24-36.5,86.26-36.5,86.26l-12.89,39.25l62.06,27.86 c0,0-1.46-5.96,0.16-10.47s-1.92-1.81,4.61-18.24c0,0,3.85-7.97,8.34-12.55c4.49-4.58,6.24-7.33,25.72-21.02 c19.48-13.69,22.65-16.42,30.1-24.68c7.46-8.26,13.1-18.62,16.17-31.49C272.26,125.83,272.45,111.88,270.67,105.72z M183.69,284.86 c0,0-2.85-1.9-8.12-7.94c-5.27-6.04-11.2-9.45-13.73-13.14c-2.53-3.69-16.81-15.9-16.81-15.9l-14.27,71.42l52.93,42.83 c0,0-0.65-4.06,0-9.01c0.65-4.94-1.09-13.51,0-22.04C184.78,322.57,183.69,284.86,183.69,284.86z" fill="#2b59c3"/></g><g id="change2_1"><path d="M184.08,257.16c0,0-6.74,0.62-12.35,0c-5.6-0.62-9.88,0-9.88,0l-82.01-12.78c0,0-12-9.66-16.17-15.16 c-4.17-5.49-9.82-9.04-9.82-9.04l39.26-7.65l52.32,7.65c0,0,6.76,5.64,10.5,9.37c3.73,3.73,10.1,9.34,11.09,11.35 c0.99,2.01,6.92,6.33,10.21,8.75C180.52,252.06,184.08,257.16,184.08,257.16z M173.05,352.7c-5.6-3.51-5.27-5.41-9.01-8.36 c-3.73-2.95-8.46-9.98-12.41-11.85c-3.95-1.87-6.6-6.95-6.6-6.95l-44.25-7.88l-46.94,7.88c0,0,3.34,1.89,6.31,6.07 c2.97,4.17,8.35,6.59,13.07,12.3c4.72,5.71,10.76,9.34,13.51,12.96c2.75,3.62,5.77,5.65,5.77,5.65s14.43-1.38,30.8,0 c16.36,1.38,10.98,0,22.51,0c11.53,0,17.46,0.82,24.82,0c7.36-0.82,13.06-0.38,13.06-0.38S178.65,356.21,173.05,352.7z M56.19,141.58c0.44,0.88,3.35,3.69,3.35,3.69s7.6-4.35,11.82-5.3c4.23-0.95,6.63-3.53,11.03-4.36c4.4-0.84,9.63-3.68,15.14-5.22 c5.51-1.55,12.03-3.6,12.03-3.6l29.21-26.06l-15.6-22.19l-68.97,4.83l-33.33,24.92c0,0,2.8,1.36,6.53,5.68 c3.73,4.32,10.69,9.81,13.84,13.69c3.15,3.88,9.45,8.93,9.45,8.93S55.75,140.7,56.19,141.58z M110.41,277.5 c-0.74-2.02-2.96-2.66-2.96-2.66s-1.8-2.94-3.51-2.37c-1.71,0.58-6.1,0-6.1,0c-0.97,0-7.79,0.86-9.01,2.01 c-1.22,1.15-7.06,6.3-7.06,9.17s1.46,5.74,3.17,7.74c0.47,0.56,1.11,1.26,1.83,1.96l0.07-0.25c0,0,0.39-10.5,6.94-11.99 c3.86-0.89,11.57-1.08,16.63-0.63C110.15,279.81,110.67,278.2,110.41,277.5z M88.37,55.14c25.09-0.96,60.1-3.11,60.1-3.11 l8.72-14.34c0,0-26.52-10.92-30.83-10.36c-4.3,0.56-66.43,12.51-70.73,13.22c-4.3,0.72-26.05,15.53-26.05,15.53l8.12,13.69 C37.71,69.79,63.28,56.1,88.37,55.14z M130.77,134c-15.39,7.17-32.41,23.66-35.97,32.98L91.71,199l27.24,1.43 c0,0,2.15-16.25,10.03-28.2c7.89-11.95,38.23-21.75,46.12-36.08c7.89-14.34,8.97-24.25,8.97-24.25l-30-6.34 C154.08,105.56,146.16,126.83,130.77,134z" fill="#d36582"/></g><g id="change3_1"><path d="M228.4,54.33c-4.28-11.16-12.31-28.82-46.68-44.2c0,0-26.8-11.53-63.59-9.39c0,0-8.9-0.46-17.24,1.11 c-8.34,1.57-15.83,1.41-28.76,4.5c-12.93,3.09-24.9,5.58-40.99,11.54C15.05,23.84,0.57,30.12,0.57,30.12S5.44,44.49,7.2,55.64 c1.76,11.14,6.44,20.44,7.34,28.26c0.9,7.82,6.34,24.39,6.34,24.39s27.95-14.6,49.15-18.22c21.2-3.62,13.18-3.95,26.58-4.28 s22.96,0.55,26.8,8.78c3.84,8.24,0.9,16.95-7.68,25.39c-8.58,8.44-23.66,16.54-34.06,26.12c-10.4,9.58-15.01,12.38-20.79,24.97 c-5.79,12.59-6.27,16.55-6.96,27.75s-0.08,21.38-0.08,21.38s13.89-1.13,28.05,0s24.49-1.13,38.11,0c13.62,1.13,25.42,0,25.42,0 s-2.01-20.13,6.21-31.43c8.22-11.29,4.52-11.25,34.93-32.45c30.42-21.21,22.4-18.14,31.63-27.97c9.22-9.82,11.45-22.55,13.9-35.85 C234.55,79.19,232.69,65.48,228.4,54.33z M145.03,259.02c0.45-4.94,0-11.14,0-11.14s-7.57,1.05-23.93,0 c-16.36-1.05-21.64,0.61-33.39,0c-11.75-0.61-33.87,0-33.87,0c0,0.38,1.16,13.77,0,20.14c-1.16,6.37,0.72,10.32,0,22.73 s0,34.78,0,34.78s9.93-1.02,31.9,0c21.97,1.02,19.11-0.58,33.17,0c14.06,0.58,26.13,0,26.13,0s-0.67-25.55,0-43.01 C145.7,265.06,144.59,263.97,145.03,259.02z" fill="#253c78"/></g><g id="change4_1"><path d="M228.84,54.16c-3.53-9.19-10.87-28.32-46.93-44.46C181.68,9.6,158.99,0,127.26,0c-3.05,0-6.13,0.09-9.1,0.26 c-0.01,0-1.24-0.06-3.17-0.06c-3.6,0-8.99,0.21-14.18,1.18c-3.18,0.6-6.26,0.95-9.53,1.32c-5.27,0.6-11.25,1.27-19.25,3.19 c-1.69,0.4-3.37,0.8-5.04,1.19c-11.31,2.66-22,5.17-36.01,10.36C15.06,23.34,0.54,29.63,0.39,29.7L0,29.87l0.14,0.4 c0.05,0.14,4.88,14.46,6.61,25.44c0.91,5.77,2.63,11.14,4.15,15.87c1.42,4.44,2.76,8.63,3.19,12.37c0.89,7.77,6.3,24.32,6.36,24.48 l0.17,0.52l0.48-0.25c0.28-0.15,28.13-14.61,49.01-18.18c9.22-1.58,12.86-2.51,15.27-3.13c3-0.77,3.71-0.96,11.24-1.14 c13.09-0.32,22.64,0.53,26.37,8.52c3.64,7.81,1.02,16.41-7.58,24.87c-4.32,4.25-10.25,8.37-16.52,12.74 c-6.08,4.23-12.37,8.61-17.53,13.36c-1.59,1.47-3.05,2.78-4.4,3.99c-7.46,6.69-11.56,10.38-16.5,21.13 c-5.82,12.68-6.32,16.8-7,27.92c-0.68,11.1-0.08,21.34-0.08,21.44l0.03,0.47l0.47-0.04c0.06,0,6.25-0.5,14.45-0.5 c4.81,0,9.37,0.17,13.53,0.5c2.76,0.22,5.57,0.33,8.57,0.33c3.75,0,7.34-0.17,10.81-0.33c3.4-0.16,6.91-0.32,10.5-0.32 c2.9,0,5.59,0.11,8.22,0.32c4.03,0.34,8.29,0.51,12.68,0.51c7.47,0,12.77-0.5,12.82-0.51l0.46-0.05l-0.05-0.46 c-0.02-0.2-1.89-20.09,6.13-31.11c1.5-2.07,2.62-3.76,3.6-5.26c4.41-6.73,6.42-9.8,31.23-27.09c22.09-15.4,23.99-18.07,26.87-22.11 c1.08-1.52,2.3-3.23,4.83-5.92c9.16-9.76,11.47-22.22,13.9-35.42l0.12-0.66C234.86,80.07,233.54,66.42,228.84,54.16z M226.18,91.4 l-0.12,0.67c-2.36,12.76-4.39,23.78-12.25,32.15c-2.83,3.01-4.24,5-5.38,6.59c-2.4,3.36-4.13,5.79-25.3,20.55 c-24.58,17.14-27.66,20.79-32.94,28.85c-0.98,1.5-1.99,3.04-3.42,5c-6.51,8.94-7.56,22.02-7.58,29.32 c-6.38,0.26-12.85,0.13-18.68-0.35c-2.81-0.23-5.68-0.35-8.76-0.35c-3.76,0-7.34,0.17-10.81,0.33c-3.4,0.16-6.92,0.32-10.51,0.32 c-2.83,0-5.46-0.1-8.06-0.31c-4.34-0.35-9.07-0.52-14.05-0.52c-2.88,0-5.8,0.06-8.68,0.17c-0.07-3.67-0.06-9.06,0.28-14.66 c0.66-10.64,1.05-13.91,6.42-25.61c4.38-9.53,7.69-12.5,14.98-19.05c1.32-1.19,2.81-2.53,4.42-4.01c4.83-4.45,10.93-8.7,16.84-12.81 c6.51-4.53,12.65-8.81,17.36-13.44c14.28-14.04,11.71-26.22,8.91-32.23c-5.05-10.83-16.48-12.32-28.08-12.32 c-1.31,0-2.72,0.02-4.33,0.06c-7.97,0.2-9.12,0.42-12.71,1.35c-2.3,0.59-5.79,1.49-14.74,3.02c-15.7,2.68-34.4,10.84-44.47,15.64 c-1.36-4.57-3.53-12.31-4.02-16.56c-0.5-4.38-1.94-8.86-3.46-13.61c-1.51-4.73-3.08-9.62-3.92-14.9c-1.13-7.17-3.41-15.4-5.18-21.18 c5.16-2.16,14.95-6.18,25.26-10C46.87,18.47,57.37,16,68.48,13.39c1.68-0.39,3.36-0.79,5.05-1.19c7.62-1.82,13.14-2.45,18.47-3.05 c3.39-0.38,6.58-0.75,10-1.39c4.95-0.93,10.26-1.07,12.98-1.07c1.52,0,2.55,0.04,2.84,0.05l0.35,0.02l0.3-0.02 c2.9-0.17,5.85-0.25,8.78-0.25c29.81,0,51.17,8.79,52.06,9.16c14.21,6.37,25.15,13.82,32.52,22.16c6.15,6.96,8.88,13.29,10.95,18.69 C227.01,67.49,228.25,80.21,226.18,91.4z M145.03,259.02c0.45-4.94,0-11.14,0-11.14s-3.36,0.47-10.46,0.47 c-3.55,0-8.02-0.12-13.48-0.47c-4.12-0.27-7.54-0.36-10.54-0.36c-6.94,0-11.62,0.5-17.51,0.5c-1.66,0-3.41-0.04-5.34-0.14 c-3.92-0.2-8.99-0.27-14.01-0.27c-10.04,0-19.87,0.27-19.87,0.27c0,0.38,1.16,13.77,0,20.14c-1.16,6.37,0.72,10.32,0,22.73 c-0.72,12.41,0,34.78,0,34.78s4.42-0.45,13.87-0.45c4.73,0,10.71,0.11,18.03,0.45c5.57,0.26,9.55,0.35,12.61,0.35 c7.05,0,9.24-0.48,14.89-0.48c1.57,0,3.4,0.04,5.67,0.13c4.69,0.19,9.15,0.26,13.02,0.26c7.74,0,13.11-0.26,13.11-0.26 s-0.67-25.55,0-43.01C145.7,265.06,144.59,263.97,145.03,259.02z M139.48,282.31c-0.39,10.2-0.33,32.93-0.21,37.85 c-2.03,0.04-4.53,0.08-7.34,0.08c-4.42,0-8.72-0.08-12.8-0.25c-2.2-0.09-4.13-0.13-5.9-0.13c-2.83,0-4.89,0.12-6.89,0.23 c-2.19,0.12-4.44,0.25-8.01,0.25c-3.34,0-7.38-0.11-12.35-0.34c-6.56-0.3-12.72-0.46-18.29-0.46c-3.53,0-6.38,0.06-8.59,0.14 c-0.08-3.29-0.07-22.81,0.27-28.59c0.38-6.55,0.08-10.86-0.17-14.33c-0.22-3.15-0.37-5.23,0.09-7.74c0.62-3.41,0.76-8.68,0.43-15.71 c3.73-0.07,8.85-0.14,13.97-0.14c5.73,0,10.35,0.09,13.72,0.26c1.9,0.1,3.74,0.15,5.63,0.15c2.95,0,5.54-0.12,8.27-0.24 c2.83-0.13,5.75-0.26,9.24-0.26c3.23,0,6.56,0.11,10.18,0.35c4.94,0.32,9.6,0.48,13.83,0.48c1.97,0,3.66-0.03,5.1-0.09 c0,1.54-0.04,3.2-0.18,4.7c-0.22,2.38-0.13,4.06-0.02,6.18C139.64,267.65,139.87,272.1,139.48,282.31z" fill="#ffd89f"/></g></svg>